<svg xmlns="http://www.w3.org/2000/svg" width="1001.000000pt" height="1001.000000pt" version="1.0" viewBox="0 0 1001.000000 1001.000000"><path d="m722.5 101.6-38 43.4H666.2l-4.5-7.8c-5.5-9.5-13.9-20.3-34.4-44.3l-16-18.7-20.9 16.5c-11.5 9.1-21.4 16.7-22 16.9-.6.3-4.2-1.4-8-3.7-26.7-16.4-61.6-21-92-12.4-8.2 2.4-23.9 9.4-32.5 14.6l-3.7 2.2-21.7-17.1-21.8-17-11.6 13.7c-29.3 34.4-33.5 39.7-39.5 50.6l-3.7 6.5h-18.5L278 102c-20.6-23.7-37.8-43-38.1-43-.4 0-11.8 19.3-25.4 43l-24.7 43H75v14.2c.1 20.3 1.8 74.2 3 94.3 8.7 139.1 39.3 236.6 106.4 339 11.4 17.4 25.4 37 26.5 37 .4 0 5.7-4.7 11.8-10.5l11.1-10.5-7.5-10.5c-33.1-46.1-57.8-91-75.4-137.3C124 390 109.1 304.8 107.4 213c-.2-15.1-.6-29.4-.8-31.8l-.4-4.2h101.5l18.4-32c10.1-17.6 18.7-32 19-32 .3 0 13.2 14.4 28.5 32l27.9 32h52l5.6-11.8c3.1-6.4 8.3-15.4 11.5-19.9 6-8.2 21.5-27.1 22.4-27.2.3-.1 9.4 6.9 20.3 15.5l19.7 15.5 6.3-5.6c26.2-23.8 59.5-31 90.5-19.5 11.2 4.2 20.7 10.2 31 19.5l6.2 5.7 13.8-10.8c7.5-5.9 16.5-13 20-15.7 3.5-2.7 6.4-4.8 6.6-4.6.1.2 4.5 5.3 9.6 11.4 11.3 13.2 19.3 25.4 25.1 38.1l4.4 9.4h52.2l27.8-32c15.4-17.6 28.2-32 28.5-32 .3 0 8.9 14.4 19 32l18.4 32H894v3.2c-.1 14.8-2.3 67.1-3.5 82.8-7.8 98.4-27.6 175.8-63.2 247-12.1 24.3-21.6 40.6-37.9 65.3-5.7 8.7-10.4 16-10.4 16.2 0 1.4 23.1 19.5 24.1 18.9.6-.3 5.8-7.7 11.4-16.3 66.8-101.8 97.8-198.1 107-332.6 1.8-26.2 3.5-74.2 3.5-98.2V146l-57.2-.2-57.1-.3-23.9-41.5c-13.2-22.8-24.4-42.5-25.1-43.7-1.1-2.1-3.6.5-39.2 41.3z"/><path d="M485.8 150.6c-7.3 1.7-16 6.1-22.6 11.3-6.3 5-14.5 16.4-17.3 24.2-1.4 3.7-2.6 5.6-3.3 5.2-.6-.4-9.2-7-19.1-14.8-9.9-7.7-19.7-15.4-21.8-17l-3.9-2.9-1.9 2.5c-3.8 4.7-9 14.7-11.5 22-2.7 8-5.4 23.5-5.4 31.1v4.8H291.7l.6 23.2c1 37 5.3 63.2 18.3 112.3.8 3.2-10-8.9-16.6-18.5-22.8-33.4-37.7-82.8-45.5-150.4-.8-7.1-1.6-13.1-1.8-13.2-.2-.2-6.3 10.2-13.7 23.1L219.5 217H140.8l.7 12.2c5.4 101.1 20.8 175.1 50.5 243.3 14.6 33.5 33.5 66.4 58.2 101.3l8 11.3 5.7-5.3c3.1-2.9 11.6-10.9 18.9-17.9l13.3-12.6-9-14.9-9-14.9 2.7-.7c1.5-.4 25.4-3.7 53.2-7.3 27.7-3.6 50.6-6.7 50.7-6.9.2-.1-6.5-9.4-14.8-20.6-8.3-11.2-15.3-20.9-15.5-21.5-.3-.6 1.4-4.5 3.7-8.6 11.2-19.7 26-52.1 47.4-103.9 12-29.2 26.3-58.5 34.6-71 7.3-11.1 21.8-26 30.1-30.8 13.1-7.7 27.5-10.5 42.9-8.3 17.6 2.6 32 10.2 44.6 23.4 14.4 15.2 25.2 35.6 46.6 88.2 20.5 50.2 31 73 45.6 98.5 3.9 6.8 7.1 12.5 7.1 12.7 0 .2-5.4 7.1-12 15.3-6.6 8.2-12 15.3-12 15.8 0 .4 23 3.8 51.1 7.5 28.2 3.7 51.4 6.9 51.7 7.1.2.3-3.7 7.6-8.8 16.2-6.4 10.8-9 16.2-8.4 17.1.5.7 8.3 7.3 17.3 14.7l16.4 13.5 5-7.2c64.4-93.5 93.8-190.1 101.2-333l.7-12.7h-78l-13.9-24.2-13.8-24.2-.7 4.9c-.4 2.8-1.7 13.1-2.8 23-6.8 58-23.4 108.9-45.9 140.5-6.3 8.9-16 19.1-14.7 15.5 2.1-5.6 9.7-37.8 12-50.5 4.4-24.3 5.7-36.5 6.3-61.3l.6-23.7H621v-5.4c0-18.3-7-40.6-16.3-52.1l-2.4-2.9-22.8 17.8c-22.7 17.8-24.4 18.7-24.5 13.6 0-.8-1.9-4.9-4.2-9-7.5-13.7-21.5-24.6-36.4-28.5-7.1-1.8-20.9-1.8-28.6.1z"/><path d="M500 296c0 21-.4 38-.9 38s-2.8-1.1-5.2-2.4c-9.5-5.4-21.6-6.9-32.4-4.1-23.9 6.2-45.8 36.8-60.4 84.2-3.6 11.7-10.1 37-10.1 39.4 0 1 1.9 2.1 5.8 3.3 31.6 9.9 68.2 41.5 97 83.8l3.3 4.7 58.7.3 58.7.3 5.9 2.8c11.4 5.3 17.8 10.2 96.2 74.9l53.2 43.7 9.9-1.9c5.5-1.1 16.2-2.4 23.9-3.1 7.6-.6 14-1.2 14.2-1.4.2-.2-28.1-24.9-62.8-55-44.6-38.7-62.9-55.2-62.5-56.3.3-.8 3.4-6.6 7-12.8 3.5-6.3 5.9-11.4 5.2-11.4-3 0-107-14-107.5-14.4-.2-.3 7.5-10.6 17.3-22.8 9.8-12.3 18.2-22.8 18.7-23.5.6-.8-1-4.8-5-12-13.8-25-22.3-43.8-41.3-91.1-21.2-52.8-31.4-71.9-45.3-85-10-9.3-26.1-16.1-38.3-16.2H500v38zm-37.5 69.5c16 2.6 35.1 3.5 50.7 2.5 13-.9 30.6-3.2 35.2-4.6 1.8-.6 1.9-.2 1.3 8.2-.4 4.9-1.4 12.9-2.2 17.7-1.5 8.3-2 9.3-8.1 17.5-10.7 14.3-19.4 34.8-19.4 45.6 0 5.7-15.7 11.7-25.2 9.7-5.3-1.2-10-3.1-13.2-5.6-1.2-.9-2.3-3.9-3.2-9.4-2.6-14.7-7.6-25.5-18.9-40.5l-6.4-8.5-2.1-13.8c-2.6-17.7-2.6-21.6-.2-20.9.9.3 6.2 1.3 11.7 2.1zm142.4 94.6c2.2 4 4.1 7.4 4.1 7.8 0 .3-3.5 1.9-7.8 3.4-13.5 5-39.7 18.5-53.4 27.6-7.3 4.9-18.5 13.3-24.8 18.7-11 9.4-11.3 9.6-7.2 4.4 22.9-28.9 48.3-50.8 74.7-64.4 4.9-2.5 9.2-4.6 9.6-4.6.3 0 2.5 3.2 4.8 7.1zM392.2 567.1c-2.4.4-6.3 1.9-8.6 3.2-4.8 2.7-168.2 136.1-176.4 144.1-30.7 29.7-17.9 81 23.3 93.2 8.8 2.6 23 2.4 32.2-.4 8.5-2.6 20.6-10.4 25.5-16.4 1.9-2.4 23.1-31.4 47.1-64.6L379 666l.2-23.7.3-23.6 44.7-25.6 44.6-25.6-8.6-.6c-12.7-1-63-.8-68 .2z"/><path d="m537.6 566.7-7.9.4 44.1 25.3c24.2 13.9 44.8 25.8 45.6 26.5 1.4 1.2 1.6 4.7 1.6 24.7V667l43.6 60.2c24 33.2 46 62.7 48.8 65.6 10.7 11.1 23.4 16.5 39.1 16.6 16.6 0 29.1-5 40.5-16.4 20.3-20.3 21.5-52.6 2.8-74.8-6.7-8-178-147.7-183.7-149.8-4-1.5-8.8-1.8-35.6-1.9-17-.1-34.6 0-38.9.2z"/><path d="M451.3 604.9 403 632.5v112.1l15.8 9c8.6 5 30.4 17.4 48.3 27.7l32.6 18.7 48.4-27.7 48.4-27.8V632.6l-45-25.8c-24.7-14.3-46.6-26.7-48.5-27.7l-3.5-1.9-48.2 27.7zm48.7 42.6c0 19.5-.3 35.5-.7 35.5-1 0-60.3-39.4-60.3-40.1 0-.8 58.2-30.9 59.8-30.9.9 0 1.2 7.8 1.2 35.5zM559.3 793.2l-59.3 34v63.2l.1 63.1 3.3-8c10.5-25.3 29.7-63.7 43.6-87 18.7-31.5 40.4-62.1 59.6-84.4 9.9-11.4 13-15.1 12.3-15-.2 0-27.1 15.3-59.6 34.1z"/></svg>