<svg xmlns="http://www.w3.org/2000/svg" xml:space="preserve" width="1006.689" height="1005.994" viewBox="0 0 1006.689 1005.995"><path d="M825.025 116.6c24.094 19.474 46.156 41.375 65.607 65.477 19.41 26.679 38.414 51.12 54.331 80.368 139.52 256.357 32.37 575.438-230.993 696.89C423.143 1093.447 81.287 923.181 12.214 613.4-67.94 253.931 252.589-66.005 612.78 12.993 696.665 31.392 757.33 66.373 825.025 116.6z" style="display:inline;fill:#ffd200;fill-opacity:1;stroke-width:1.04034"/><path d="M812.803 131.22c23.136 18.737 44.322 39.81 63 63 18.638 25.67 36.887 49.187 52.172 77.328C1061.95 518.21 959.059 825.222 706.161 942.08 426.891 1071.121 98.62 907.295 32.292 609.231c-76.968-345.874 230.823-653.71 576.7-577.7 80.552 17.703 138.807 51.362 203.811 99.69z" style="display:inline;fill:#000;fill-opacity:1"/><path fill="#fdb82c" d="M769.932 223.95s-.184 242.705-.841 363.33c-1.523 28.551-5.609 57.231-16.288 83.94-14.421 43.431-60.309 95.075-94.985 124.515-41.33 35.088-83.396 57.226-133.339 77.661-6.934 2.837-20.542 6.792-20.542 6.792l-9.17-45.187 8.67-86.94 4.347-.02c1.865 25.103 12.522 65.79 19.918 78.123 0 0 83.668-38.706 88.008-41.043 63.68-28.445 111.048-85.483 127.091-122.901 8.365-19.51 11.468-49.677 12.955-74.458.453-116.366 1.111-354.09 1.111-354.09l4.374-7.683z" style="display:inline"/><path fill="#f9d20a" d="M283.418 788.16c-153.79-118.434-186.65-334.176-75.431-494.255 2.241-3.226 10.947-15.882 13.638-19.15-.24 5.78-.101 17.155-.101 17.155s-12.213 17.659-15.137 22.395C92.569 496.01 168.97 723.222 338.427 812.267c24.79 13.026 37.047 20.846 62.571 37.592-43.99-16.423-80.93-33.667-117.58-61.699"/><path fill="#f6b632" d="M196.173 771.225c8.539 17.12 21.165 14.968 34.005 30.985-6.598-2.197-18.589-1.834-24.557-3.683-2.49-.77-9.186-7.93-12.288-10.587-8.846-7.577-6.64-30.154-.535-29.965.025 6.177 1.73 9.666 3.375 13.25" style="display:inline"/><path fill="#fcd307" d="M189.558 806.475c-1.943-1.869 10.41-.336 12.911.705 5.695 2.37 7.888 3.341 7.888 3.341 8.102-5.156 37.401-.085 45.083 11.937 6.079 5.767 12.568 14.128 20.462 18.288 3.148 1.66 20.288 1.976 20.288 1.976s-6.044 8.848-15.028 8.862c-18.591 1.043-27.52-15.758-42.235-20.489-1.254-.403-7.572-2.544-8.121-2.983 10.453 11.303 22.036 24.886 19.982 26.715 2.671.134-19.58-15.974-27.984-17.109-18.65-6.926-13.517-15.667-33.246-31.243"/><path fill="#f6b632" d="M813.797 771.634c-8.45 17.12-20.947 14.968-33.654 30.985 6.53-2.197 18.397-1.834 24.304-3.683 2.464-.77 9.09-7.93 12.16-10.587 8.755-7.578 6.572-30.155.53-29.965-.024 6.177-1.712 9.665-3.34 13.25" style="display:inline;stroke-width:.994827"/><path fill="#fcd307" d="M819.637 805.47c1.923-1.87-10.303-.336-12.778.704-5.636 2.37-7.807 3.341-7.807 3.341-8.018-5.155-37.015-.085-44.617 11.937-6.017 5.767-12.44 14.129-20.251 18.288-3.116 1.66-20.079 1.976-20.079 1.976s5.982 8.848 14.873 8.862c18.4 1.043 27.236-15.758 41.8-20.489 1.24-.403 7.493-2.544 8.036-2.983-10.344 11.303-21.808 24.886-19.776 26.716-2.643.133 19.378-15.975 27.696-17.11 18.457-6.926 13.377-15.667 32.903-31.243" style="stroke-width:.994827"/><path fill="#f9d20a" d="M722.297 789.424c155.41-117.087 189.12-331.374 78.881-495.692-2.222-3.312-11.303-15.993-14.081-19.283.248 5.82.105 17.274.105 17.274s12.609 17.782 15.628 22.55c113.045 178.611 37.207 410.598-137.328 500.676-25.556 13.19-26.25 15.74-52.603 32.604 45.418-16.538 71.557-29.902 109.398-58.129" style="display:inline;stroke-width:1.01964"/><path fill="#fcfcfc" d="m93.588 673.453-4.194-11.164 43.164-17.19 4.013 10.987z" style="display:inline"/><path fill="#fcfbfc" d="m67.71 585.64 44.989-10.39 2.393 11.619-25.694 26.236 29.772-6.325 2.073 9.396L76.639 626.3l-2.622-11.988 22.3-24.178-26.524 5.478z" style="display:inline"/><path fill="#fcfbfc" d="m59.608 513.592 10.176.024.446 13.02 35.11-1.697 1.005 11.182-35.66 2.111c-.304 2.785-.68 12.779-.68 12.779l-9.693.196z"/><path d="m60.19 482.514 45.723 2.297 2.33-32.103-9.922-1.089-1.715 22.057-9.302-.744 1.631-19.106-9.429-.474-1.45 19.274-8.008-.547 1.579-19.599-9.845-.594zM68.976 414.14l45.04 9.98 2.092-11.092-19.115-5.131 21.58-7.985 2.693-12.425-20.538 6.492s-1.151-3.739-2.13-5.308c-2.82-4.524-6-6.528-11.337-6.443-15.665.25-18.285 31.912-18.285 31.912m10.925-9.574s.408-10.88 6.892-9.906c6.924 1.04 3.382 12.248 3.382 12.248z" style="fill:#fff"/><path d="M283.605 117.46q-.516 0-1.04.023c-5.348.228-12.096 3.412-16.237 6.761-25.243 20.416 4.576 58.04 31.389 37.39 18.988-14.623 7.602-44.165-14.112-44.175m-2.228 11.298c9.61.266 18.687 11.435 12.258 21.793-10.64 17.138-34.422-5.062-21.493-17.99 2.768-2.768 6.031-3.892 9.235-3.803" style="display:inline;fill:#fcfbfc;fill-opacity:1"/><path d="M772.578 153.076a27 27 0 0 0-4.035.383c-5.974 1.03-13.933 8.109-16.558 13.444-13.152 26.73 26.099 50.59 43.254 26.253 12.81-18.171-2.74-40.45-22.66-40.08m3.329 11.106c3.48.026 7.008 1.637 9.906 5.531 9.887 13.286-10.352 30.624-21.658 18.16-8.698-9.589 1.312-23.77 11.752-23.691" style="display:inline;fill:#fff;fill-opacity:1"/><path d="M585.634 891.279c-1.037-.007-2.11.07-3.209.238-14.858 2.28-20.933 18.455-5.729 25.26-3.679 1.955-6.184 6.361-5.802 10.709 1.917 21.844 41.362 12.8 33.58-7.5-1.491-3.89-4.46-6.705-8.785-6.72h-.002c9.571-10.143 2.186-21.904-10.053-21.987m3.749 12.453c.46 2.422-1.145 5.298-3.976 5.642-2.807.341-5.198-2.077-5.389-4.518-.19-2.42 1.407-4.538 4.176-5.111 2.77-.574 4.685 1.338 5.189 3.987m4.026 19.224c.517 2.497-.76 6.411-4.184 6.964-3.107.5-6.323-.29-7.234-4.517-.933-4.333 2.348-6.234 5.578-6.6 2.955-.336 5.23 1.206 5.84 4.153M426.486 891.656c-11.305-.465-16.978 12.435-16.978 12.435l10.427 2.95s3.933-7.924 10.047-3.534c4.149 2.98.704 6.207-3.357 9.1-7.92 5.643-21.734 14.254-21.734 14.254l-.74 8.71 32.778 6.001 2.268-10.513-17.323-3.178s11.75-4.59 17.246-11.29c4.893-5.964 4.683-10.8 3.464-14.71-2.077-6.666-8.734-9.922-16.098-10.225M479.982 897.835l-3.382.262c-19.53 3.13-22.436 41.297-5.602 47.75 29.664 11.37 35.438-47.712 8.984-48.012m-1.142 9.953c9.308-.536 7.217 28.705-1.162 28.531-8.446-.175-7.49-28.033 1.162-28.531" style="display:inline;fill:#fff"/><path fill="#fdfcfd" d="m538.808 898.21 2.999 46.008-10.995.996-2.015-32.995-8.501 5.896-5.424-7.262 13.976-12.093z" style="display:inline"/><path fill="#fcfbfc" d="m104.501 304.363 42.949 16.95-4.617 10.929-36.041 7.042 28.11 11.67-3.62 8.915L88.8 342.92l4.638-11.361 32.078-7.271-24.954-10.527z" style="display:inline"/><path d="m139.013 248.59-6.693 8.967 27.806 40.856 6.907-10.103-6.001-7.578 9.42-14.084 9.206 2.374 7.834-11.035zm9.29 12.89 12.26 2.517-5.478 8.004z" style="display:inline;fill:#fff"/><path fill="#fcfbfc" d="m189.854 186.056 7.257 7.134-8.787 9.618 26.785 23.586-6.596 9.19-27.974-24.17c-2.165 1.779-8.664 9.401-8.664 9.401l-7.824-7.381z"/><path fill="#fcfcfc" d="m211.299 165.252 9.2-7.588 30.26 35.255-9.091 7.36z" style="display:inline"/><path fill="#fcfbfc" d="m367.322 77.759 16.84 42.992-11.146 4.062-29.703-21.593 10.6 28.531-8.993 3.421-16.523-42.65 11.478-4.342 27.172 18.536-9.288-25.442z"/><path d="m431.552 64.201-11.113 1.31-10.522 48.288L422 111.86l1.371-9.568 16.703-2.851 4.61 8.314 13.398-1.906zm-2.964 15.609 6.607 10.63-9.578 1.53z" style="display:inline;fill:#fff"/><path d="m494.007 55.998.995 36.005h18v10h-29l-1.005-46.005z" style="fill:#fcfcfc"/><path d="m581.802 63.35-8.554 44.976 31.48 6.716 2.44-9.68-21.611-4.726 2.014-9.112 18.7 4.24 1.765-9.275-18.892-4.084 1.64-7.856 19.197 4.255 1.941-9.67z" style="fill:#fff"/><path fill="#fcfbfc" d="M667.64 101.227c-3.06-3.595-7.469-9.922-11.853-6.602-4.753 3.6 6.802 12.259 8.57 14.31 6.342 8.06.542 20.746-10.384 22.219-6.546.882-19.044-4.238-23.57-13.872l8.89-4.866s3.717 4.967 6.765 6.192c4.176 1.677 8.952 2.836 9.073-1.735.154-5.89-18.443-10.59-13.371-24.204 5.94-15.94 28.289-12.196 34.629 2.974"/><path d="m710.14 107.044-21.964 39.912 9.75 5.5 8.178-13.918s19.446 13.246 28.437-.947c11.537-18.21-24.4-30.547-24.4-30.547m5.745 13.375s11.55 3.836 7.838 10.145-12.299-1.649-12.299-1.649zM835.301 204.237l-35.48 29.484 7.484 8.45 15.766-11.966-6.91 21.948 8.171 9.74 7.452-20.21s3.66 1.381 5.5 1.57c5.303.541 8.834-.743 12.037-5.014 9.399-12.534-14.02-34.002-14.02-34.002m.873 14.5s8.35 6.988 3.607 11.516c-5.064 4.834-11.751-4.83-11.751-4.83z" style="fill:#fff"/><path fill="#fcfbfc" d="m887.234 293.638-7.258-11.656-30.544 19.141-6.041-9.718 30.923-18.938-6.588-11.464 9.383-5.388 19.308 32.433zM908.148 347.185c.645-4.677 2.429-12.179-2.967-13.239-5.851-1.149-4.616 13.238-4.969 15.922-1.79 10.099-15.116 14.22-23.49 7.05-5.018-4.297-9.52-17.03-5.348-26.822l9.55 3.391s-1.23 6.082-.114 9.171c1.53 4.233 3.846 8.568 7.336 5.613 4.498-3.807-4.381-20.81 9.153-26.092 15.848-6.185 27.937 12.983 20.842 27.814"/><path d="m908.853 465.708 6.833-7.165c-2.861-5.383-4.04-10.392-3.517-15.02.667-5.909 4.275-9.88 10.534-10.529 6.655-.69 9.63 1.202 12.53 7.969 2.628 6.131-.247 13.126-.247 13.126l9.247 7.563c3.168-4.27 6.592-23.453-3.134-33.51-4.457-4.61-10.46-9.14-21.048-7.51-11.973 1.846-18.069 9.834-20.07 15.884-4.704 14.214 2.757 22.609 8.872 29.192" style="display:inline;fill:#fff"/><path fill="#fcfcfc" d="m903.742 494.16 45.475.64-.005 11.006h-36l.177 17.737-9.823-.03z"/><path d="M915.64 551.716c-9.791.065-16.604 1.692-19.478 15.795-2.665 13.082 2.66 18.4 10.09 21.104 12.634 4.6 34.342 5.67 34.342 5.67l.715-10.644-28.85-5.127s-7.156-1.75-5.513-10.55c1.387-7.43 5.934-6.287 9.262-5.904 8.87 1.023 28.653 4.86 28.653 4.86l1.674-10.117s-21.697-5.148-30.895-5.087M887.59 617.087c-3.305 5.954-15.46 32.87 1.242 40.162 7.267 3.172 11.631-5.643 11.631-5.643s-.373 8.375 10.94 9.707c13.695 1.613 19.266-29.476 18.986-29.545zm4.727 13.755 8.615 3.014c-1.45 9.411-5.776 11.05-8.488 10.047-2.637-.976-3.736-4.342-.127-13.06m17.879 6.123 6.984 2.272c-1.87 9.201-4.664 10.687-6.822 9.116-1.836-1.337-3.557-4.473-.162-11.388" style="display:inline;fill:#fff"/><path fill="#edd64d" d="m258.803 643.22-1.127.642c-5.043-17.908-6.203-36.604-7.915-55.1l-.028-350.152c-.549-1.597.758-2.557 1.069-3.389l-.041 336.541c1.582 23.845 1.862 48.125 8.041 71.46z"/><path fill="#f9d10a" d="M653.26 173.443c-53.206-12.743-98.875-22.832-150.75-22.239-50.08.573-88.783 10.612-149.261 22.52 52.46-28.02 126.294-34.383 149.099-33.977 51.516.918 108.648 10.44 150.911 33.696"/><path fill="#fbd008" d="M588.057 366.603c0-5.131-3.163-8.857-9.283-8.892-7.933-.046-20.73.022-20.73.022l-.21 58.267H542.51v-72.5s35.513-.225 45.48-.176c7.148.035 18.82 9.824 18.652 23.097-.241 19.163-20.056 21.355-20.056 21.355L613.57 416h-20.5c-1.32 0-25.687-28.32-25.687-28.32l.124-10.732s6.037-.155 11.113-.22c5.396-.068 9.436-3.62 9.436-10.125" style="display:inline"/><path fill="#fcd306" d="M703.346 416.708h-18.25l-20.424-27.354h-4.738l-17.863 27h-19.5l25.247-38.151-22.555-34.703h19.089l18.929 27.212 18.39-27.212h19.65l-23.453 34.724Z"/><path fill="#fcd105" d="m441.096 416 35.28-72.5h18.381l34.46 72.5h-18.09l-6.5-14.193h-32l6.676-13.647h18.5l-12.78-29.699-26.306 57.54z"/><path fill="#fcd105" d="M323 386v30h-17v-71.97h55v13.677h-38V371h36.75v15z" style="display:inline"/><path fill="#fbd204" d="M392 402h38.47v14l-55.324-.176V364.96l16.589-.024.257 7.187 37.063-.249.177 14.192-37.232.078"/><path fill="#f7cf0c" d="M375.146 343.854h55.677v13.762h-55.677z"/><g style="display:inline;fill:#ffd200;fill-opacity:1"><path d="M93.48 184.076c-.357 1.377-.103 2.302.474 1.287 1.017-1.788 3.773-5.738 8.232-7.096l3.989-1.28c1.6-.295 2.984-.717 3.78-2.159 1.167-2.29 2.635-5.715 2.71-10.524.039-2.434.08-3.037-1.491-2.233-3.95 2.025-7.398 4.323-9.978 7.187-6.594 7.32-6.563 11.203-7.717 14.818z" style="display:inline;fill:#ffd200;fill-opacity:1;stroke-width:.25" transform="matrix(5.98023 0 0 5.93644 -170.335 -498.304)"/><path d="M135.48 160.261c-1.496 0-4.667 1.479-7.624 3.081-2.581 1.398-5.203 3.158-7.277 4.664-4.332 2.972-7.224 5.632-9.963 8.138-1.349 1.066-1.643 2.172-5.332 2.947-2.742.576-6.015 1.668-7.81 3.585-1.703 1.817-2.396 2.885-3.53 4.805-1.376 2.327-1.872 5.11-2.378 7.036-.256 1.87-.833 3.363-3.213 5.422-1.025.887-1.939 1.862-.515 3.227 1.428 1.37 2.249 2.928 7.25 3.567 2.32.297 5.699-1.46 8.7-2.479 2.063-.855 4.149-1.736 6.64-1.797 3.703-.057 7.172.43 11.326-.36.861-.164 1.447-.758.365-1.41a18 18 0 0 1-3.626-2.871c-.05-.28.185-.432.57-.36.09.017 3.731.22 6.707-.93.73-.282.414-.797.06-1.103l-3.465-1.681c-1.197-.968-1.284-2.42-1.072-2.592 5.246-4.953 6.88-6.019 10.195-10.857 1.85-2.703 5.383-8.58 6.412-13.613.901-4.257.866-6.27-2.42-6.419m-.204 2.502c.363.014.261.41.228.75-.243 2.264-1.377 5.137-1.955 7.289-1.433 3.185-2.88 5.923-4.521 8.439-1.122 1.72-2.52 3.221-4.087 4.763-2.45 2.202-6.11 4.878-6.64 6.381-.297.847.253 1.215.227 1.987l-1.963-.35c-1.924-.448-4.031.161-5.357.759-.723.326-.807.513-.259.668 2.317.862 4.71 2.433 5.143 3.699 0 0-3.446.567-4.835 1.008-2.164.689-5.478 2.918-5.59 2.861.608-.655 1.186-1.339 1.92-1.868 1.674-1.21 2.62-1.984 4.86-2.597.178-.048.514-.085-.032-.562-2.018-1.542-3.354-1.573-4.78-1.802-.23-.063-.639-.183-.474-.378 1.545-1.14 3.28-2.595 7.59-3.604.394-.104.722.001.823-.103.509-.752.667-1.446 1.537-2.315 1.477-1.474 4.237-3.482 5.953-5.292 3.187-3.36 5.579-8.344 6.155-11.858.08-.497.246-1.597-1.207-.993-5.413 2.229-10.306 5.668-13.084 9.445l-.165-.132 1.158-1.82 1.025-1.389c1.508-2.043 3.61-4.105 5.736-5.752 3.8-2.95 9.067-5.754 12.056-7.104.244-.097.417-.135.538-.13m-32.595 25.986c.7.001.273.929.308 1.486-.736 2.977-2.254 4.21-3.82 4.83-2.226.883-2.654.485-3.902.81-1.45.395-1.53 1.205-1.836 1.405.086-.614.298-1.143.513-1.67.506-1.241 1.31-2.482 3.224-4.035 1.27-1.03 2.688-1.848 4.829-2.662.3-.115.522-.164.684-.164" style="display:inline;fill:#ffd200;fill-opacity:1;stroke-width:.25" transform="matrix(5.98023 0 0 5.93644 -170.335 -498.304)"/></g><g style="display:inline;fill:#d31f28;fill-opacity:1"><path d="M0 0h5.361c.35 0 .636.266.636.596v9.515c0 .331-.286.597-.636.597h-7.53c-8.705 0-13.322-2.617-15.961-8.189l-16.375-37.756c-.997-2.251-2.424-3.323-5.247-3.323v48.671c0 .331-.284.597-.633.597h-12.033c-.35 0-.635-.266-.635-.597v-58.324c0-.58.499-1.053 1.12-1.053h13.492c8.71 0 12.683 2.62 15.321 8.188L-6.957-3.799C-5.66-1.156-3.792 0 0 0" style="fill:#d31f28;fill-opacity:1;fill-rule:nonzero;stroke:none" transform="matrix(1.14087 0 0 -1.19817 609.182 266.417)"/><path d="M0 0h-20.347v14.063H0c5.48 0 9.188-3.149 9.188-7.034C9.188 3.146 5.48 0 0 0m14.018 19.537c4.828 1.886 8.828 6.132 8.828 13.158 0 10.476-9.552 16.829-21.06 16.829h-35.574c-.35 0-.635-.266-.635-.596v-9.516c0-.33.285-.596.635-.596H-.683c5.343 0 8.956-3.066 8.956-6.854 0-3.784-3.613-6.855-8.956-6.855h-19.664v7.066c0 .328-.286.597-.635.597h-12.806c-.347 0-.635-.269-.635-.597V-9.855c0-.329.285-.594.635-.594H1.269c13.105 0 22.489 5.754 22.489 17.478 0 5.764-3.61 10.532-9.74 12.508" style="fill:#d31f28;fill-opacity:1;fill-rule:nonzero;stroke:none" transform="matrix(1.14087 0 0 -1.19817 425.414 312.922)"/><path d="m0 0-20.63 24.833c-.061.077-.148.061-.183-.019l-5.553-12.783c-.034-.082-.034-.166.024-.242l9.02-11.373c.636-.797 1.362-1.102 2.437-1.102H-.348C.074-.686.251-.307 0 0" style="fill:#d31f28;fill-opacity:1;fill-rule:nonzero;stroke:none" transform="matrix(1.14087 0 0 -1.19817 623.392 324.624)"/><path d="M0 0h-12.045c-.351 0-.635-.269-.635-.596v-42.029c0-.328.284-.594.635-.594H0c.35 0 .638.266.638.594V-.596C.638-.269.35 0 0 0" style="fill:#d31f28;fill-opacity:1;fill-rule:nonzero;stroke:none" transform="matrix(1.14087 0 0 -1.19817 478.294 273.66)"/><path d="M0 0h-12.037c-.347 0-.631-.266-.631-.597v-48.671c-2.825 0-4.254 1.072-5.247 3.323L-34.288-8.189C-36.927-2.617-41.548 0-50.252 0h-11.346c-.35 0-.634-.266-.634-.597v-9.515c0-.33.284-.596.634-.596h9.174c3.796 0 5.664-1.156 6.961-3.799L-29.3-51.786c2.634-5.568 6.613-8.188 15.32-8.188H-.489c.618 0 1.12.473 1.12 1.053V-.597C.631-.266.348 0 0 0" style="fill:#d31f28;fill-opacity:1;fill-rule:nonzero;stroke:none" transform="matrix(1.14087 0 0 -1.19817 534.826 253.586)"/></g><path d="m500.783 748.073 3.217-.012V880C433.853 852.21 376.339 818.223 338 781c-31.869-30.94-55.074-58.565-67.943-81.635C251.573 666.228 245.64 643.363 243.5 629c-13.77-92.426-3.707-268.487-5-405.5 47.162-16.01 95.098-30.471 146-39 41.7-6.332 64.165-11.971 120.53-10.854 56.367 1.118 114.227 11.118 162.47 19.354 36.505 9.554 71.553 19.527 102.434 30.956l-6.398 5.114-6.598 5.274C716.715 222.4 676.714 206.429 640 201.5c-46.211-4.82-85.96-14.798-133.52-14.707S417 192.656 375 200.5c-40.117 6.3-81.51 19.116-123.47 32.793L252 556.5c1.849 67.843 9.621 91.01 14.439 104 19.962 53.827 65.458 87.86 116.06 118.5 33.978 18.45 67.676 34.857 99.768 46.707 9.354-20.819 14.814-48.338 18.516-77.634" style="display:inline;fill:#ffd200;fill-opacity:1;stroke-width:.945"/></svg>