<svg xmlns="http://www.w3.org/2000/svg" xml:space="preserve" width="1933.198" height="2060.1965" viewBox="0 0 511.49196 545.09366"><g style="fill:#004b29"><path d="m-795.546-20.025 71.143 196.088-117.38 30.553 229.774 204.62 227.642-204.62-112.4-26.998 69.718-198.225-186.382 117.232zm27.035 35.698 33.13 21.751 63.743 165.887-79.026 17.954-46.237-10.156 94.042-22.14zm312.11.543-65.464 172.5 94.192 22.455-45.197 10.07-79.697-17.656 63.592-166.172zM-722.807 45.67l105.987 70.827-.148 221.241-26.069-22.462-.105-185.205-65.319-47.14zm220.81.563-13.6 36.547-66.203 47.535.38 186.07-25.954 22.538-.049-222.337zm-297.182 173.74 46.105 10.364 136.106 121.072-.314 33.956zm373.718.16L-607.1 385.57l-.34-33.905 136.261-121.394z" style="display:inline;fill:#004b29;fill-opacity:1;stroke:none;stroke-width:.25" transform="translate(863.674 20.025)"/><g style="fill:#004b29;stroke-width:.515069"><path d="M-7.648 324.415c-.135 0-.212.021-.223.06l-38.077-.059-.014 46.604 38.148.119c.234-.18 7.542-.207 11.416-5.209 1.757-2.27 2.128-4.278 2.367-7.417.26-3.449-.781-6.46-2.191-8.496-1.419-2.049-3.21-3.112-3.572-3.148 0 0 4.878-3.734 4.098-10.93-.955-8.841-10.372-11.539-11.952-11.524zm-28.558 9.208 25.601.06c0-.17 5.42-.266 5.525 4.515-.153 4.044-4.368 4.53-5.286 4.572h-25.899zm27.252 18.481c1.826.223 5.097.4 5.298 5.101.158 3.61-3.786 4.49-4.513 4.514l-27.977.239v-9.86h25.66c.005-.024 1.395-.01 1.532.008zm61.964-27.697c-.1.002-.62-.03-.627-.016l-35.248.144.119 46.451 9.505.119.014-16.757 19.054.007 11.554 16.904 11.077-.036-11.495-17.788c.04.038 10.099-1.859 9.95-14.167-.156-13.018-11.125-14.766-12.644-14.818zm-26.178 9.263h24.193c.512 0 5.853-.072 6.175 5.754-.187 5.46-5.404 5.457-5.796 5.46l-24.613.21z" style="display:inline;fill:#004b29;fill-opacity:1;stroke-width:.128768" transform="matrix(1.96468 0 0 1.91854 90.3 -169.395)"/><path d="M77.25 324.325h9.42v46.739h-9.42z" style="fill:#004b29;fill-opacity:1;stroke-width:.128768" transform="matrix(1.96468 0 0 1.91854 90.3 -169.395)"/><path d="M125.588 322.748c-.233 0-.467 0-.7.005-14.841.244-28.432 10.194-28.155 25.067 1.185 16.92 13.625 24.484 28.157 24.592 18.043.054 28.099-11.074 28.526-23.306.324-16.698-13.158-26.312-27.828-26.358zm1.144 9.833c8.708-.138 17.31 7.007 16.537 15.597-.67 7.436-3.952 13.984-18.974 14.967-8.265.54-18.948-6.105-17.603-16.664 1.11-8.71 6.987-13.6 17.853-14.036.282.002 1.905.142 2.187.136zm37.241-8.285.24 46.69 9.502.119.099-34 30.127 33.93 10.44.036-.035-46.725-9.385-.014-.048 34.23-30.485-34.384z" style="display:inline;fill:#004b29;fill-opacity:1;stroke-width:.128768" transform="matrix(1.96468 0 0 1.91854 90.3 -169.395)"/></g></g></svg>