<svg xmlns="http://www.w3.org/2000/svg" id="_레이어_1" viewBox="0 0 32 75"><defs><style>.cls-1{fill:#fff}</style></defs><path d="m15.888 66.113-.64-1.44c-.207-.492-.636-.724-1.199-.724H7.085v.344l1.044 1.03h5.394c.193 0 .358.113.433.275l.521 1.015q.018.038.018.083c0 .045-.006.058-.018.084l-.521 1.015a.48.48 0 0 1-.433.275H9.382a.14.14 0 0 1-.14-.138v-.824l-1.115-1.099h-.348v3.022c0 .227.187.412.418.412h5.849c.563 0 .992-.23 1.199-.724l.639-1.44a1.58 1.58 0 0 0 0-1.168M24.566 63.95l-1.115 1.099v2.786a.16.16 0 0 1-.126.16.16.16 0 0 1-.144-.042l-3.584-3.534a1.63 1.63 0 0 0-1.254-.464 1.625 1.625 0 0 0-1.508 1.622v3.867h.348l1.115-1.099v-2.786c0-.075.051-.145.126-.16a.16.16 0 0 1 .144.042l3.584 3.534c.317.312.764.495 1.254.464a1.625 1.625 0 0 0 1.508-1.622V63.95zM22.322 71.998l-.595-.797a.43.43 0 0 0-.344-.171h-4.465v3.968h1.208v-1.337h3.104a.43.43 0 0 0 .344-.172l.25-.334.497-.659a.42.42 0 0 0 0-.501v.002Zm-4.194.651v-.619c0-.064.052-.116.117-.116h2.644c.041 0 .078.019.102.05l.238.31a.08.08 0 0 1 0 .1l-.249.338a.13.13 0 0 1-.103.052h-2.634a.116.116 0 0 1-.117-.116h.001ZM1.54 72.581l-.244-.247a.13.13 0 0 1 .002-.162l.242-.23a.09.09 0 0 1 .065-.029h3.109l.902-.89H1.157a.43.43 0 0 0-.346.172l-.727.799a.42.42 0 0 0 0 .504l.698.754c.081.107.209.17.345.17h2.857l.224.277a.13.13 0 0 1-.003.162l-.218.249H.918L.023 75h4.459a.43.43 0 0 0 .345-.172l.597-.795c.17-.226.17-.281-.002-.506l-.567-.745a.43.43 0 0 0-.343-.169H1.605a.09.09 0 0 1-.067-.031h.002ZM10.302 71.031H6.388a.63.63 0 0 0-.636.627v2.716c0 .346.285.627.636.627h3.655l.894-.881v-2.46a.63.63 0 0 0-.636-.627h.001Zm-.391 2.879a.216.216 0 0 1-.217.214H6.997a.216.216 0 0 1-.217-.214v-1.792c0-.118.097-.214.217-.214h2.697c.119 0 .217.096.217.214zM15.904 71.031H11.99a.63.63 0 0 0-.636.627v2.716c0 .346.285.627.636.627h3.655l.894-.881v-2.46a.63.63 0 0 0-.636-.627h.001Zm-.393 2.879a.216.216 0 0 1-.217.214h-2.698a.215.215 0 0 1-.216-.214v-1.792c0-.118.097-.214.216-.214h2.698c.119 0 .217.096.217.214zM31.441 73.485a.32.32 0 0 0-.255-.125h-1.592q-.009 0-.015-.007l-.16-.162c-.014-.018-.014-.042-.001-.057l.161-.154s.008-.006.015-.006h1.741l.666-.656H29.3c-.1 0-.196.047-.254.125l-.479.527a.31.31 0 0 0 .003.377l.455.492c.06.079.156.126.256.126h1.542l.135.168a.05.05 0 0 1-.001.06l-.131.15h-1.697l-.66.656h2.701c.1 0 .196-.047.256-.127l.391-.522c.122-.162.122-.215-.001-.375l-.372-.488zM23.013 74.272l-.154-.287h2.135l.589-.597v-1.066h-2.527c-.12 0-.213.095-.283.181L22 73.527c-.051.079-.04.181 0 .265l.477 1.024a.32.32 0 0 0 .283.181h2.251l.621-.655h-2.504c-.049 0-.084-.02-.114-.071Zm-.073-.936.207-.257c.044-.054.094-.102.164-.102h1.549v.359zM25.914 72.334v2.665h.867v-2.063h1.465l.611-.603zM31.999 13.418l-20.257 7.401H0l20.257-7.401zM31.998 23.193v26.293c-.001 1.366-.735 2.64-1.902 3.375l-11.382 7.168a5.1 5.1 0 0 1-5.429 0L1.88 52.861A3.99 3.99 0 0 1 0 49.485V35.941l6.902-2.749v13.726l9.097 5.73 9.079-5.719V25.95l6.919-2.757ZM31.999 13.418v8.071L0 34.238v-8.071zM0 12.748v8.071L31.998 8.071V0z" class="cls-1"/></svg>